<svg xmlns="http://www.w3.org/2000/svg" xmlns:xlink="http://www.w3.org/1999/xlink" version="1.1" id="Layer_1" x="0px" y="0px" width="90px" height="90px" viewBox="0 0 90 90" enable-background="new 0 0 90 90" xml:space="preserve">
<path d="M12.841,44.999c0,17.733,14.426,32.159,32.158,32.159c17.732,0,32.158-14.427,32.158-32.16S62.73,12.84,44.999,12.84  C27.267,12.84,12.841,27.267,12.841,44.999z M75.157,44.999c0,16.63-13.528,30.16-30.158,30.16  c-16.63,0-30.158-13.529-30.158-30.159c0-16.629,13.528-30.159,30.158-30.159C61.628,14.84,75.157,28.369,75.157,44.999z"/>
<polygon points="54.736,44.999 35,61.227 35,63.717 57.766,44.999 35,26.281 35,28.771 "/>
<g>
</g>
<g>
</g>
<g>
</g>
<g>
</g>
<g>
</g>
<g>
</g>
<g>
</g>
<g>
</g>
<g>
</g>
<g>
</g>
<g>
</g>
<g>
</g>
<g>
</g>
<g>
</g>
<g>
</g>
</svg>