<svg xmlns="http://www.w3.org/2000/svg" xmlns:xlink="http://www.w3.org/1999/xlink" version="1.1" id="Layer_1" x="0px" y="0px" width="90px" height="90px" viewBox="0 0 90 90" enable-background="new 0 0 90 90" xml:space="preserve">
<path d="M77.156,44.998c0-17.733-14.426-32.158-32.157-32.158c-17.732,0-32.158,14.427-32.158,32.159S27.268,77.157,45,77.157  C62.731,77.157,77.156,62.73,77.156,44.998z M14.841,44.999c0-16.63,13.528-30.159,30.158-30.159  c16.629,0,30.157,13.529,30.157,30.158c0,16.629-13.527,30.159-30.157,30.159C28.371,75.157,14.841,61.628,14.841,44.999z"/>
<polygon points="35.264,44.999 55,28.771 55,26.281 32.235,44.999 55,63.716 55,61.226 "/>
<g>
</g>
<g>
</g>
<g>
</g>
<g>
</g>
<g>
</g>
<g>
</g>
<g>
</g>
<g>
</g>
<g>
</g>
<g>
</g>
<g>
</g>
<g>
</g>
<g>
</g>
<g>
</g>
<g>
</g>
</svg>